<mxfile host="app.diagrams.net" agent="Mozilla/5.0 (Windows NT 10.0; Win64; x64) AppleWebKit/537.36 (KHTML, like Gecko) Chrome/128.0.0.0 Safari/537.36" version="24.7.16">
  <diagram name="Page-1" id="7AUyuRCu-SjHyO347Z_t">
    <mxGraphModel dx="1050" dy="522" grid="1" gridSize="10" guides="1" tooltips="1" connect="1" arrows="1" fold="1" page="1" pageScale="1" pageWidth="850" pageHeight="1100" math="0" shadow="0">
      <root>
        <mxCell id="0" />
        <mxCell id="1" parent="0" />
        <mxCell id="RI8dXwHCQ7TdZ3VPlat0-8" value="" style="edgeStyle=orthogonalEdgeStyle;rounded=0;orthogonalLoop=1;jettySize=auto;html=1;" edge="1" parent="1" source="RI8dXwHCQ7TdZ3VPlat0-1" target="RI8dXwHCQ7TdZ3VPlat0-7">
          <mxGeometry relative="1" as="geometry" />
        </mxCell>
        <mxCell id="RI8dXwHCQ7TdZ3VPlat0-1" value="instance = stopped" style="rounded=0;whiteSpace=wrap;html=1;" vertex="1" parent="1">
          <mxGeometry x="60" y="110" width="120" height="60" as="geometry" />
        </mxCell>
        <mxCell id="RI8dXwHCQ7TdZ3VPlat0-11" value="" style="edgeStyle=orthogonalEdgeStyle;rounded=0;orthogonalLoop=1;jettySize=auto;html=1;" edge="1" parent="1" source="RI8dXwHCQ7TdZ3VPlat0-7" target="RI8dXwHCQ7TdZ3VPlat0-10">
          <mxGeometry relative="1" as="geometry" />
        </mxCell>
        <mxCell id="RI8dXwHCQ7TdZ3VPlat0-7" value="Event Bridge" style="rounded=0;whiteSpace=wrap;html=1;" vertex="1" parent="1">
          <mxGeometry x="260" y="110" width="120" height="60" as="geometry" />
        </mxCell>
        <mxCell id="RI8dXwHCQ7TdZ3VPlat0-13" value="" style="edgeStyle=orthogonalEdgeStyle;rounded=0;orthogonalLoop=1;jettySize=auto;html=1;" edge="1" parent="1" source="RI8dXwHCQ7TdZ3VPlat0-10" target="RI8dXwHCQ7TdZ3VPlat0-12">
          <mxGeometry relative="1" as="geometry" />
        </mxCell>
        <mxCell id="RI8dXwHCQ7TdZ3VPlat0-14" value="" style="edgeStyle=orthogonalEdgeStyle;rounded=0;orthogonalLoop=1;jettySize=auto;html=1;" edge="1" parent="1" source="RI8dXwHCQ7TdZ3VPlat0-10" target="RI8dXwHCQ7TdZ3VPlat0-12">
          <mxGeometry relative="1" as="geometry" />
        </mxCell>
        <mxCell id="RI8dXwHCQ7TdZ3VPlat0-15" value="" style="edgeStyle=orthogonalEdgeStyle;rounded=0;orthogonalLoop=1;jettySize=auto;html=1;" edge="1" parent="1" source="RI8dXwHCQ7TdZ3VPlat0-10" target="RI8dXwHCQ7TdZ3VPlat0-12">
          <mxGeometry relative="1" as="geometry" />
        </mxCell>
        <mxCell id="RI8dXwHCQ7TdZ3VPlat0-10" value="Step Function" style="rounded=0;whiteSpace=wrap;html=1;" vertex="1" parent="1">
          <mxGeometry x="460" y="111" width="100" height="89" as="geometry" />
        </mxCell>
        <mxCell id="RI8dXwHCQ7TdZ3VPlat0-17" value="" style="edgeStyle=orthogonalEdgeStyle;rounded=0;orthogonalLoop=1;jettySize=auto;html=1;" edge="1" parent="1" source="RI8dXwHCQ7TdZ3VPlat0-12" target="RI8dXwHCQ7TdZ3VPlat0-16">
          <mxGeometry relative="1" as="geometry" />
        </mxCell>
        <mxCell id="RI8dXwHCQ7TdZ3VPlat0-12" value="lambda1" style="rhombus;whiteSpace=wrap;html=1;rounded=0;" vertex="1" parent="1">
          <mxGeometry x="630" y="60" width="80" height="85.5" as="geometry" />
        </mxCell>
        <mxCell id="RI8dXwHCQ7TdZ3VPlat0-19" value="" style="edgeStyle=orthogonalEdgeStyle;rounded=0;orthogonalLoop=1;jettySize=auto;html=1;" edge="1" parent="1" source="RI8dXwHCQ7TdZ3VPlat0-16" target="RI8dXwHCQ7TdZ3VPlat0-18">
          <mxGeometry relative="1" as="geometry" />
        </mxCell>
        <mxCell id="RI8dXwHCQ7TdZ3VPlat0-16" value="wait 1 hour" style="rhombus;whiteSpace=wrap;html=1;rounded=0;" vertex="1" parent="1">
          <mxGeometry x="630" y="180" width="80" height="70" as="geometry" />
        </mxCell>
        <mxCell id="RI8dXwHCQ7TdZ3VPlat0-18" value="lambda 2" style="rhombus;whiteSpace=wrap;html=1;rounded=0;" vertex="1" parent="1">
          <mxGeometry x="630" y="280" width="80" height="70" as="geometry" />
        </mxCell>
      </root>
    </mxGraphModel>
  </diagram>
</mxfile>
